<?xml version="1.0" encoding="utf-8"?>
<!-- Generator: Adobe Illustrator 21.1.0, SVG Export Plug-In . SVG Version: 6.00 Build 0)  -->
<svg version="1.1" id="Layer_1" xmlns="http://www.w3.org/2000/svg" xmlns:xlink="http://www.w3.org/1999/xlink" x="0px" y="0px"
	 viewBox="0 0 128 128" style="enable-background:new 0 0 128 128;" xml:space="preserve">
<style type="text/css">
	.st0{fill:#F07E19;stroke:#FFFFFF;stroke-width:2;stroke-miterlimit:10;}
	.st1{fill:#FFFFFF;}
</style>
<g>
	<g id="button">
		<circle class="st0" cx="63.6" cy="64" r="62.6"/>
	</g>
	<g>
		<path class="st1" d="M30.6,74.6l-6.2-24.3h3.3l2.9,12.3c0.7,3,1.4,6,1.8,8.4h0.1c0.4-2.4,1.2-5.3,2-8.4l3.2-12.2H41l3,12.3
			c0.7,2.9,1.3,5.8,1.7,8.3h0.1c0.5-2.7,1.2-5.4,1.9-8.4l3.2-12.2h3.2l-6.9,24.3h-3.3l-3.1-12.6c-0.8-3.1-1.3-5.5-1.6-7.9h-0.1
			c-0.4,2.4-1,4.8-1.9,7.9l-3.5,12.6H30.6z"/>
		<path class="st1" d="M56.8,49H60v10.9h0.1c0.5-0.9,1.3-1.7,2.3-2.2c0.9-0.5,2.1-0.9,3.2-0.9c2.3,0,6.1,1.4,6.1,7.5v10.4h-3.2v-10
			c0-2.8-1-5.2-4-5.2c-2.1,0-3.7,1.4-4.2,3.2C60,63,60,63.4,60,64.1v10.5h-3.2V49z"/>
		<path class="st1" d="M86.4,74.6l-0.3-2.2h-0.1c-1,1.4-2.8,2.6-5.3,2.6c-3.5,0-5.3-2.5-5.3-5c0-4.2,3.7-6.5,10.5-6.5v-0.4
			c0-1.4-0.4-4-4-4c-1.6,0-3.3,0.5-4.5,1.3l-0.7-2.1c1.4-0.9,3.5-1.5,5.7-1.5c5.3,0,6.6,3.6,6.6,7.1v6.5c0,1.5,0.1,3,0.3,4.2H86.4z
			 M86,65.7c-3.5-0.1-7.4,0.5-7.4,3.9c0,2.1,1.4,3,3,3c2.3,0,3.7-1.4,4.2-2.9c0.1-0.3,0.2-0.7,0.2-1V65.7z"/>
		<path class="st1" d="M97.8,52.1v5h4.5v2.4h-4.5V69c0,2.2,0.6,3.4,2.4,3.4c0.8,0,1.4-0.1,1.8-0.2l0.1,2.4c-0.6,0.3-1.6,0.4-2.8,0.4
			c-1.5,0-2.7-0.5-3.4-1.3c-0.9-0.9-1.2-2.5-1.2-4.5v-9.5H92v-2.4h2.7V53L97.8,52.1z"/>
	</g>
</g>
<g>
</g>
<g>
</g>
<g>
</g>
<g>
</g>
<g>
</g>
<g>
</g>
</svg>
