<?xml version="1.0" encoding="utf-8"?>
<!-- Generator: Adobe Illustrator 21.1.0, SVG Export Plug-In . SVG Version: 6.00 Build 0)  -->
<svg version="1.1" id="Layer_1" xmlns="http://www.w3.org/2000/svg" xmlns:xlink="http://www.w3.org/1999/xlink" x="0px" y="0px"
	 viewBox="0 0 128 128" style="enable-background:new 0 0 128 128;" xml:space="preserve">
<style type="text/css">
	.st0{fill:#F07E19;stroke:#FFFFFF;stroke-width:2;stroke-miterlimit:10;}
	.st1{fill:#FFFFFF;}
</style>
<g id="button">
	<circle class="st0" cx="63.6" cy="63.7" r="62.6"/>
	<g>
		<path class="st1" d="M34.8,76.3l-6.6-25.8h3.5l3.1,13.1c0.8,3.2,1.5,6.4,1.9,8.9h0.1c0.4-2.6,1.2-5.6,2.1-9l3.5-13h3.5L49,63.6
			c0.7,3.1,1.4,6.1,1.8,8.9h0.1c0.5-2.8,1.3-5.7,2.1-8.9l3.4-13h3.4l-7.3,25.8H49l-3.3-13.5c-0.8-3.3-1.3-5.8-1.7-8.4H44
			c-0.5,2.6-1,5.1-2,8.4l-3.7,13.5H34.8z"/>
		<path class="st1" d="M62.7,49.1h3.4v11.6h0.1c0.5-1,1.4-1.8,2.4-2.4c1-0.6,2.2-1,3.5-1c2.5,0,6.5,1.5,6.5,7.9v11h-3.4V65.7
			c0-3-1.1-5.5-4.3-5.5c-2.2,0-3.9,1.5-4.5,3.4c-0.2,0.5-0.2,1-0.2,1.6v11.2h-3.4V49.1z"/>
		<path class="st1" d="M84.7,57.8l4.1,11c0.4,1.2,0.9,2.7,1.2,3.8h0.1c0.3-1.1,0.7-2.5,1.2-3.9l3.7-10.9h3.6L93.4,71
			c-2.4,6.4-4.1,9.6-6.4,11.6c-1.6,1.5-3.3,2-4.1,2.2L82.1,82c0.8-0.3,2-0.8,3-1.6c0.9-0.7,2.1-2,2.8-3.8c0.2-0.3,0.3-0.6,0.3-0.8
			s-0.1-0.5-0.2-0.9L81,57.8H84.7z"/>
	</g>
</g>
<g>
</g>
<g>
</g>
<g>
</g>
<g>
</g>
<g>
</g>
<g>
</g>
</svg>
