<?xml version="1.0" encoding="utf-8"?>
<!-- Generator: Adobe Illustrator 21.1.0, SVG Export Plug-In . SVG Version: 6.00 Build 0)  -->
<svg version="1.1" id="Layer_1" xmlns="http://www.w3.org/2000/svg" xmlns:xlink="http://www.w3.org/1999/xlink" x="0px" y="0px"
	 viewBox="0 0 128 128" style="enable-background:new 0 0 128 128;" xml:space="preserve">
<style type="text/css">
	.st0{fill:#F07E19;stroke:#FFFFFF;stroke-width:2;stroke-miterlimit:10;}
	.st1{fill:#FFFFFF;}
</style>
<g>
	<g>
		<g id="button">
			<circle class="st0" cx="64.5" cy="63.5" r="62.6"/>
		</g>
	</g>
	<g>
		<path class="st1" d="M27.4,73l-6.2-24.3h3.3l3,12.3c0.7,3,1.4,6,1.8,8.4h0.1c0.4-2.4,1.2-5.3,2-8.4l3.2-12.2h3.3l3,12.3
			c0.7,2.9,1.3,5.8,1.7,8.3h0.1c0.5-2.7,1.2-5.4,1.9-8.4l3.2-12.2H51L44,73h-3.3l-3.1-12.6c-0.8-3.1-1.3-5.5-1.6-7.9h0
			c-0.4,2.4-1,4.8-1.9,7.9L30.7,73H27.4z"/>
		<path class="st1" d="M74.7,60.6c0,8.4-5.1,12.8-11.3,12.8c-6.4,0-10.9-5-10.9-12.3c0-7.7,4.8-12.7,11.3-12.7
			C70.4,48.3,74.7,53.4,74.7,60.6z M55.8,61c0,5.2,2.8,9.8,7.7,9.8c5,0,7.8-4.6,7.8-10.1c0-4.8-2.5-9.9-7.7-9.9
			C58.4,50.9,55.8,55.7,55.8,61z"/>
		<path class="st1" d="M82.7,73l-6.2-24.3h3.3L82.7,61c0.7,3,1.4,6,1.8,8.4h0.1c0.4-2.4,1.2-5.3,2-8.4l3.2-12.2h3.3l3,12.3
			c0.7,2.9,1.3,5.8,1.7,8.3h0.1c0.5-2.7,1.2-5.4,1.9-8.4l3.2-12.2h3.2L99.3,73H96l-3-12.7c-0.8-3.1-1.3-5.5-1.6-7.9h-0.1
			c-0.4,2.4-1,4.8-1.9,7.9L86,73H82.7z"/>
	</g>
</g>
</svg>
